<svg width="1080" height="1080" viewBox="0 0 1080 1080" fill="none" xmlns="http://www.w3.org/2000/svg">
<g clip-path="url(#clip0)">
<rect width="1080" height="1080" fill="black"/>
<path d="M0 539.969C0 838.203 241.766 1079.97 540 1079.97C838.234 1079.97 1080 838.203 1080 539.969C1080 241.735 838.234 -0.0309448 540 -0.0309448C241.766 -0.0309448 0 241.735 0 539.969Z" fill="black"/>
<path d="M651.635 655.47L483.448 823.657C467.143 839.962 445.028 849.122 421.968 849.122C398.909 849.122 376.794 839.962 360.488 823.657L359.781 822.949C343.475 806.644 334.315 784.529 334.315 761.469C334.315 738.41 343.475 716.295 359.781 699.989L651.634 408.136C667.875 424.376 680.757 443.656 689.546 464.875C698.336 486.093 702.859 508.835 702.86 531.803C702.86 554.77 698.336 577.512 689.547 598.731C680.758 619.95 667.875 639.23 651.635 655.47V655.47Z" fill="#2C2B33"/>
<path d="M535.369 586.304C539.274 582.399 539.274 576.067 535.369 572.162C531.464 568.257 525.132 568.257 521.227 572.162L482.336 611.053C478.431 614.958 478.431 621.29 482.336 625.195C486.241 629.1 492.573 629.1 496.478 625.195L535.369 586.304Z" fill="url(#paint0_linear)"/>
<path d="M586.271 637.209C590.177 633.304 590.177 626.972 586.271 623.067C582.366 619.162 576.034 619.162 572.129 623.067L519.096 676.1C515.191 680.005 515.191 686.337 519.096 690.242C523.001 694.147 529.333 694.147 533.238 690.242L586.271 637.209Z" fill="url(#paint1_linear)"/>
<path d="M463.937 680.342C460.032 684.247 460.032 690.579 463.937 694.484C467.842 698.389 474.174 698.389 478.079 694.484L541.011 631.551C544.917 627.646 544.917 621.314 541.011 617.409C537.106 613.504 530.774 613.504 526.869 617.409L463.937 680.342Z" fill="url(#paint2_linear)"/>
<path d="M567.174 678.928C563.269 682.833 563.269 689.164 567.174 693.07C571.079 696.975 577.411 696.975 581.316 693.07L591.923 682.463C595.828 678.558 595.828 672.226 591.923 668.321C588.018 664.416 581.686 664.416 577.781 668.321L567.174 678.928Z" fill="url(#paint3_linear)"/>
<path d="M476.672 644.987C480.577 641.081 480.577 634.75 476.672 630.844C472.766 626.939 466.435 626.939 462.53 630.844C458.624 634.75 458.624 641.081 462.53 644.987C466.435 648.892 472.766 648.892 476.672 644.987Z" fill="url(#paint4_linear)"/>
<path d="M513.44 710.041C517.345 706.135 517.345 699.804 513.44 695.898C509.535 691.993 503.203 691.993 499.298 695.898C495.393 699.804 495.393 706.135 499.298 710.041C503.203 713.946 509.535 713.946 513.44 710.041Z" fill="url(#paint5_linear)"/>
<path d="M546.67 597.611C542.765 601.516 542.765 607.847 546.67 611.753C550.575 615.658 556.907 615.658 560.812 611.753C564.718 607.847 564.718 601.516 560.812 597.611C556.907 593.705 550.575 593.705 546.67 597.611Z" fill="url(#paint6_linear)"/>
<path d="M597.58 648.522C593.675 652.427 593.675 658.759 597.58 662.664C601.486 666.57 607.817 666.57 611.722 662.664C615.628 658.759 615.628 652.427 611.722 648.522C607.817 644.617 601.486 644.617 597.58 648.522Z" fill="url(#paint7_linear)"/>
<path d="M483.462 240.019L713.759 470.316C730.074 486.631 739.24 508.76 739.24 531.834C739.24 554.908 730.074 577.037 713.759 593.352L651.61 655.501L359.795 363.685C343.479 347.37 334.313 325.241 334.313 302.167C334.313 279.093 343.479 256.965 359.795 240.649L360.425 240.019C376.741 223.703 398.87 214.537 421.943 214.537C445.017 214.537 467.146 223.703 483.462 240.019V240.019Z" fill="url(#paint8_linear)"/>
<path d="M360.027 364.117C343.617 347.708 334.398 325.452 334.398 302.245C334.398 279.039 343.617 256.783 360.027 240.373C376.436 223.964 398.692 214.745 421.899 214.745C445.105 214.745 467.361 223.964 483.771 240.373L652.411 409.013C659.336 415.934 665.668 423.423 671.343 431.401C618.052 469.179 553.418 488.931 486.051 490.143L360.027 364.117Z" fill="url(#paint9_linear)"/>
<path d="M513.68 517.722L360.08 364.122C351.788 355.864 345.249 346.017 340.853 335.171C338.732 329.934 337.122 324.504 336.048 318.957C333.912 307.918 333.912 296.572 336.048 285.533C337.122 279.986 338.732 274.556 340.853 269.319C346.321 255.825 355.075 243.911 366.319 234.659C377.562 225.408 390.939 219.113 405.234 216.346C421.897 213.114 439.139 214.783 454.872 221.151C465.716 225.545 475.561 232.083 483.818 240.372L533.655 290.209C525.256 310.171 518.588 330.818 513.725 351.922C500.862 407.635 500.847 464.968 513.679 517.722H513.68Z" fill="url(#paint10_linear)"/>
</g>
<defs>
<linearGradient id="paint0_linear" x1="532.169" y1="555.704" x2="571.303" y2="611.522" gradientUnits="userSpaceOnUse">
<stop stop-color="#FF4754"/>
<stop offset="1" stop-color="#802440"/>
</linearGradient>
<linearGradient id="paint1_linear" x1="584.839" y1="604.841" x2="626.196" y2="659.52" gradientUnits="userSpaceOnUse">
<stop stop-color="#FF4754"/>
<stop offset="1" stop-color="#802440"/>
</linearGradient>
<linearGradient id="paint2_linear" x1="464.131" y1="713.947" x2="421.727" y2="659.878" gradientUnits="userSpaceOnUse">
<stop stop-color="#FF4754"/>
<stop offset="1" stop-color="#802440"/>
</linearGradient>
<linearGradient id="paint3_linear" x1="573.909" y1="705.992" x2="547.185" y2="646.988" gradientUnits="userSpaceOnUse">
<stop stop-color="#FF4754"/>
<stop offset="1" stop-color="#802440"/>
</linearGradient>
<linearGradient id="paint4_linear" x1="468.611" y1="619.248" x2="480.25" y2="675.859" gradientUnits="userSpaceOnUse">
<stop stop-color="#FF4754"/>
<stop offset="1" stop-color="#802440"/>
</linearGradient>
<linearGradient id="paint5_linear" x1="505.379" y1="684.302" x2="517.018" y2="740.913" gradientUnits="userSpaceOnUse">
<stop stop-color="#FF4754"/>
<stop offset="1" stop-color="#802440"/>
</linearGradient>
<linearGradient id="paint6_linear" x1="554.731" y1="623.349" x2="543.092" y2="566.738" gradientUnits="userSpaceOnUse">
<stop stop-color="#FF4754"/>
<stop offset="1" stop-color="#802440"/>
</linearGradient>
<linearGradient id="paint7_linear" x1="605.641" y1="674.261" x2="594.002" y2="617.65" gradientUnits="userSpaceOnUse">
<stop stop-color="#FF4754"/>
<stop offset="1" stop-color="#802440"/>
</linearGradient>
<linearGradient id="paint8_linear" x1="880.182" y1="826.196" x2="532.611" y2="250.491" gradientUnits="userSpaceOnUse">
<stop stop-color="#FF4754"/>
<stop offset="1" stop-color="#802440"/>
</linearGradient>
<linearGradient id="paint9_linear" x1="726.602" y1="382.187" x2="401.096" y2="399.896" gradientUnits="userSpaceOnUse">
<stop stop-color="#FF4754"/>
<stop offset="1" stop-color="#802440"/>
</linearGradient>
<linearGradient id="paint10_linear" x1="434.051" y1="214.74" x2="710.242" y2="485.946" gradientUnits="userSpaceOnUse">
<stop stop-color="#FF4754"/>
<stop offset="1" stop-color="#802440"/>
</linearGradient>
<clipPath id="clip0">
<rect width="1080" height="1080" fill="white"/>
</clipPath>
</defs>
</svg>
